<?xml version="1.0" encoding="UTF-8" standalone="no"?>
<!-- Created with Inkscape (http://www.inkscape.org/) -->

<svg
   xmlns:dc="http://purl.org/dc/elements/1.1/"
   xmlns:cc="http://creativecommons.org/ns#"
   xmlns:rdf="http://www.w3.org/1999/02/22-rdf-syntax-ns#"
   xmlns:svg="http://www.w3.org/2000/svg"
   xmlns="http://www.w3.org/2000/svg"
   xmlns:sodipodi="http://sodipodi.sourceforge.net/DTD/sodipodi-0.dtd"
   xmlns:inkscape="http://www.inkscape.org/namespaces/inkscape"
   width="744.09448819"
   height="1052.3622047"
   id="svg2"
   version="1.1"
   inkscape:version="0.48.2 r9819"
   sodipodi:docname="drawing-1.svg">
  <defs
     id="defs4">
    <inkscape:perspective
       sodipodi:type="inkscape:persp3d"
       inkscape:vp_x="-45.207487 : 728.3625 : 1"
       inkscape:vp_y="0 : 1000 : 0"
       inkscape:vp_z="685.30474 : 668.96084 : 1"
       inkscape:persp3d-origin="494.68607 : 336.42428 : 1"
       id="perspective6330" />
    <marker
       inkscape:stockid="Arrow1Mstart"
       orient="auto"
       refY="0.0"
       refX="0.0"
       id="Arrow1Mstart"
       style="overflow:visible">
      <path
         id="path4428"
         d="M 0.0,0.0 L 5.0,-5.0 L -12.5,0.0 L 5.0,5.0 L 0.0,0.0 z "
         style="fill-rule:evenodd;stroke:#000000;stroke-width:1.0pt;marker-start:none"
         transform="scale(0.4) translate(10,0)" />
    </marker>
    <marker
       inkscape:stockid="Arrow2Mstart"
       orient="auto"
       refY="0.0"
       refX="0.0"
       id="Arrow2Mstart"
       style="overflow:visible">
      <path
         id="path4446"
         style="font-size:12.0;fill-rule:evenodd;stroke-width:0.62500000;stroke-linejoin:round"
         d="M 8.7185878,4.0337352 L -2.2072895,0.016013256 L 8.7185884,-4.0017078 C 6.9730900,-1.6296469 6.9831476,1.6157441 8.7185878,4.0337352 z "
         transform="scale(0.6) translate(0,0)" />
    </marker>
    <marker
       inkscape:stockid="TriangleOutL"
       orient="auto"
       refY="0.0"
       refX="0.0"
       id="TriangleOutL"
       style="overflow:visible">
      <path
         id="path4565"
         d="M 5.77,0.0 L -2.88,5.0 L -2.88,-5.0 L 5.77,0.0 z "
         style="fill-rule:evenodd;stroke:#000000;stroke-width:1.0pt;marker-start:none"
         transform="scale(0.8)" />
    </marker>
    <marker
       inkscape:stockid="Arrow1Mend"
       orient="auto"
       refY="0.0"
       refX="0.0"
       id="Arrow1Mend"
       style="overflow:visible;">
      <path
         id="path4431"
         d="M 0.0,0.0 L 5.0,-5.0 L -12.5,0.0 L 5.0,5.0 L 0.0,0.0 z "
         style="fill-rule:evenodd;stroke:#000000;stroke-width:1.0pt;marker-start:none;"
         transform="scale(0.4) rotate(180) translate(10,0)" />
    </marker>
    <marker
       inkscape:stockid="Arrow1Mend"
       orient="auto"
       refY="0"
       refX="0"
       id="Arrow1Mend-5"
       style="overflow:visible">
      <path
         inkscape:connector-curvature="0"
         id="path4431-9"
         d="M 0,0 5,-5 -12.5,0 5,5 0,0 z"
         style="fill-rule:evenodd;stroke:#000000;stroke-width:1pt;marker-start:none"
         transform="matrix(-0.4,0,0,-0.4,-4,0)" />
    </marker>
    <marker
       inkscape:stockid="Arrow1Mend"
       orient="auto"
       refY="0"
       refX="0"
       id="Arrow1Mend-1"
       style="overflow:visible">
      <path
         inkscape:connector-curvature="0"
         id="path4431-7"
         d="M 0,0 5,-5 -12.5,0 5,5 0,0 z"
         style="fill-rule:evenodd;stroke:#000000;stroke-width:1pt;marker-start:none"
         transform="matrix(-0.4,0,0,-0.4,-4,0)" />
    </marker>
    <marker
       inkscape:stockid="Arrow1Mstart"
       orient="auto"
       refY="0"
       refX="0"
       id="Arrow1Mstart-1"
       style="overflow:visible">
      <path
         inkscape:connector-curvature="0"
         id="path4428-5"
         d="M 0,0 5,-5 -12.5,0 5,5 0,0 z"
         style="fill-rule:evenodd;stroke:#000000;stroke-width:1pt;marker-start:none"
         transform="matrix(0.4,0,0,0.4,4,0)" />
    </marker>
  </defs>
  <sodipodi:namedview
     id="base"
     pagecolor="#ffffff"
     bordercolor="#666666"
     borderopacity="1.0"
     inkscape:pageopacity="0.0"
     inkscape:pageshadow="2"
     inkscape:zoom="0.64"
     inkscape:cx="294.90192"
     inkscape:cy="572.63343"
     inkscape:document-units="px"
     inkscape:current-layer="layer1"
     showgrid="false"
     showguides="true"
     inkscape:guide-bbox="true"
     inkscape:window-width="1650"
     inkscape:window-height="914"
     inkscape:window-x="10"
     inkscape:window-y="3"
     inkscape:window-maximized="0" />
  <metadata
     id="metadata7">
    <rdf:RDF>
      <cc:Work
         rdf:about="">
        <dc:format>image/svg+xml</dc:format>
        <dc:type
           rdf:resource="http://purl.org/dc/dcmitype/StillImage" />
        <dc:title />
      </cc:Work>
    </rdf:RDF>
  </metadata>
  <g
     inkscape:label="Layer 1"
     inkscape:groupmode="layer"
     id="layer1">
    <g
       id="g4075">
      <path
         sodipodi:nodetypes="ccccc"
         inkscape:connector-curvature="0"
         id="path4073"
         d="m 357.72395,551.04173 2.31442,8.9136 c 1.09173,2.23794 10.37736,4.67628 13.77599,1.14608 l 3.75164,-8.7569 z"
         style="opacity:0.51401869;fill:#ffffff;stroke:#000000;stroke-width:0.56732386000000001px;stroke-linecap:butt;stroke-linejoin:miter;stroke-opacity:1" />
      <path
         transform="matrix(0.06297703,0.01705712,-0.08571051,0.1188157,387.84441,497.48691)"
         d="m 393.95949,411.92548 a 155.56349,40.406101 0 1 1 -311.126986,0 155.56349,40.406101 0 1 1 311.126986,0 z"
         sodipodi:ry="40.406101"
         sodipodi:rx="155.56349"
         sodipodi:cy="411.92548"
         sodipodi:cx="238.396"
         id="path2985-1-3-7-1"
         style="opacity:1;fill:#ffffff;stroke:#000000;stroke-width:5.99859761999999996;stroke-linecap:round;stroke-linejoin:round;stroke-miterlimit:4;stroke-opacity:1;stroke-dasharray:none;stroke-dashoffset:0"
         sodipodi:type="arc" />
    </g>
    <path
       style="fill:none;stroke:#000000;stroke-width:1px;stroke-linecap:butt;stroke-linejoin:miter;stroke-opacity:1"
       d="m 499.78606,406.74606 13.8205,5.49076 c 3.0478,1.84046 3.51154,11.04124 0.45189,13.06294 l -12.64862,6.73778 z"
       id="path3918"
       inkscape:connector-curvature="0"
       sodipodi:nodetypes="ccccc" />
    <path
       sodipodi:type="arc"
       style="fill:#ffffff;stroke:#000000;stroke-width:2.9295373;stroke-linecap:round;stroke-linejoin:round;stroke-miterlimit:4;stroke-opacity:0.98431373;stroke-dasharray:none;stroke-dashoffset:0"
       id="path6280-0"
       sodipodi:cx="100"
       sodipodi:cy="495.21933"
       sodipodi:rx="11.428572"
       sodipodi:ry="40"
       d="m 111.42857,495.21933 a 11.428572,40 0 1 1 -22.857142,0 11.428572,40 0 1 1 22.857142,0 z"
       transform="matrix(0.34804981,-0.04993283,0.02492989,0.33120422,452.94091,260.19383)" />
    <path
       sodipodi:type="arc"
       style="fill:none;stroke:#000000;stroke-width:1.09000003;stroke-linecap:round;stroke-linejoin:round;stroke-miterlimit:4;stroke-opacity:1;stroke-dasharray:none;stroke-dashoffset:0"
       id="path2985-1-3-0"
       sodipodi:cx="238.396"
       sodipodi:cy="411.92548"
       sodipodi:rx="155.56349"
       sodipodi:ry="40.406101"
       d="m 393.95949,411.92548 a 155.56349,40.406101 0 1 1 -311.126986,0 155.56349,40.406101 0 1 1 311.126986,0 z"
       transform="matrix(0.9694412,0.26257001,-1.3193905,1.8289976,663.38421,-267.24627)" />
    <path
       style="fill:none;stroke:#000000;stroke-width:1px;stroke-linecap:butt;stroke-linejoin:miter;stroke-opacity:1"
       d="m 234.5075,265.13593 99.15985,-3.45673 -0.55242,76.02157 -98.56005,7.23707 z"
       id="path6454"
       inkscape:connector-curvature="0"
       sodipodi:nodetypes="ccccc" />
    <path
       style="fill:#ffffff;stroke:#000000;stroke-width:1;stroke-linecap:round;stroke-linejoin:round;stroke-miterlimit:4;stroke-opacity:0.98431373;stroke-dasharray:none;stroke-dashoffset:0"
       d="m 263.78125,307.15625 c -0.26949,8.85293 3.34375,16.25 3.34375,16.25 L 284.52344,356.64062 323.5,328.22656 c -2.16242,-4.25395 -17.00484,-33.80687 -20.26107,-38.11212 -3.25624,-4.30525 -9.7216,-8.7563 -19.69306,-7.32329 -9.97146,1.43301 -18.9944,9.94574 -19.76462,24.3651 z"
       id="path6278-0"
       inkscape:connector-curvature="0"
       sodipodi:nodetypes="cccczzc" />
    <path
       sodipodi:type="arc"
       style="fill:#ffffff;stroke:#000000;stroke-width:1.26840281;stroke-linecap:round;stroke-linejoin:round;stroke-miterlimit:4;stroke-opacity:0.98431373;stroke-dasharray:none;stroke-dashoffset:0"
       id="path6278"
       sodipodi:cx="237.14285"
       sodipodi:cy="285.21933"
       sodipodi:rx="26.057556"
       sodipodi:ry="38.57143"
       d="m 263.20041,285.21933 a 26.057556,38.57143 0 1 1 -52.11511,0 26.057556,38.57143 0 1 1 52.11511,0 z"
       transform="matrix(0.89200069,0.01268037,0.00194067,-0.69679213,91.703525,537.71243)" />
    <path
       style="fill:#00ff00;stroke:#000000;stroke-width:1px;stroke-linecap:butt;stroke-linejoin:miter;stroke-opacity:1;opacity:0.14018692"
       d="M 325.9375 282.75 C 269.89861 282.5318 220.39837 298.28322 200.15625 326.34375 C 170.71316 367.15906 214.36638 418.53496 297.65625 441.09375 C 362.66302 458.70062 432.58483 453.54625 474.15625 431.03125 L 473.59375 521 C 473.59375 521 489.22211 512.08203 499.5 498.875 C 507.53371 488.55172 509.8125 473.75 509.8125 473.75 L 511.21875 383.125 L 510.875 383.5625 C 512.90427 348.50758 471.52047 311.52403 404.28125 293.3125 C 378.25316 286.26288 351.40972 282.84918 325.9375 282.75 z M 320.28125 341.25 C 325.80226 341.2765 331.43429 341.44343 336.09375 341.71875 L 335.875 373.4375 C 326.52354 373.4238 307.49002 373.45206 298 374.40625 L 298.3125 342.34375 C 302.13961 341.53284 311.07957 341.20584 320.28125 341.25 z M 485.375 393.75 C 491.00313 400.0285 497.04067 405.81525 501.53125 412.9375 L 500.53125 442.75 C 495.93479 436.38305 491.18651 429.23783 484.375 424.0625 L 485.375 393.75 z "
       id="path4136" />
    <path
       style="fill:none;stroke:#000000;stroke-width:1px;stroke-linecap:butt;stroke-linejoin:miter;stroke-opacity:1"
       d="m 333.73438,261.81531 -17.57813,-19.53126 -92.48334,3.496 11.07154,19.14063 z"
       id="path3889"
       inkscape:connector-curvature="0"
       sodipodi:nodetypes="ccccc" />
    <path
       style="fill:none;stroke:#000000;stroke-width:1px;stroke-linecap:butt;stroke-linejoin:miter;stroke-opacity:1"
       d="m 223.78732,246.72309 0.27621,77.49744 10.06147,20.40728 0.55243,-79.70713 z"
       id="path3891"
       inkscape:connector-curvature="0"
       sodipodi:nodetypes="ccccc" />
    <g
       id="g5465"
       transform="translate(-26,-6)">
      <path
         sodipodi:nodetypes="ccccc"
         inkscape:connector-curvature="0"
         id="path4110"
         d="m 250,469.50504 77.14286,-35.71428 37.14286,59.99999 L 280,542.36218 z"
         style="fill:#cccccc;stroke:#000000;stroke-width:1px;stroke-linecap:butt;stroke-linejoin:miter;stroke-opacity:1" />
      <path
         sodipodi:nodetypes="csccsc"
         inkscape:connector-curvature="0"
         id="path4013"
         d="m 285.69985,520.30766 c -4.04061,-5.05076 -24.3662,-40.47788 -14.26468,-48.5591 10.10153,-8.08123 23.47861,-4.92822 23.47861,-4.92822 l 11.16244,20.86658 c 0,0 -13.13198,0 -16.16244,5.05076 -3.03045,5.05076 -4.21393,27.56998 -4.21393,27.56998 z"
         style="fill:#ffffff;stroke:#000000;stroke-width:1px;stroke-linecap:butt;stroke-linejoin:miter;stroke-opacity:1" />
      <path
         sodipodi:nodetypes="ccssc"
         inkscape:connector-curvature="0"
         id="path4015"
         d="m 299.54612,463.78988 12.59101,21.87673 c 0,0 2.66683,-12.64733 8.08122,-12.12183 8.6222,0.83683 22.44615,13.35691 24.88616,16.06091 2.7346,3.03046 -21.24293,-73.14068 -45.55839,-25.81581 z"
         style="fill:#ffffff;stroke:#000000;stroke-width:1px;stroke-linecap:butt;stroke-linejoin:miter;stroke-opacity:1" />
    </g>
    <path
       style="fill:#800000;stroke:#800000;stroke-opacity:1"
       d="m 681.74412,452.30271 -323.99666,10.51632 323.67305,-5.56074 z"
       id="path4191"
       inkscape:connector-curvature="0"
       sodipodi:nodetypes="cccc" />
    <g
       id="g4230"
       transform="translate(-24,-8)">
      <path
         sodipodi:nodetypes="ccsccc"
         inkscape:connector-curvature="0"
         id="path4118"
         d="M 395.47472,457.88741 385.3732,436.6742 c 0,0 17.09386,-7.95676 31.32958,14.40213 10.17089,15.97457 1.91878,35.94705 1.91878,35.94705 l -16.58085,-11.4583 c 9.41352,-6.39831 0.0409,-21.33431 -6.56599,-17.67767 z"
         style="fill:#808080;stroke:#000000;stroke-width:1px;stroke-linecap:butt;stroke-linejoin:miter;stroke-opacity:1" />
      <path
         transform="matrix(0.8083845,-0.22683429,0.16886427,0.87474124,44.949878,119.86798)"
         d="m 335.71428,480.93362 c 0,6.70632 -9.2741,12.14286 -20.71428,12.14286 -11.44018,0 -20.71428,-5.43654 -20.71428,-12.14286 0,-6.70631 9.2741,-12.14285 20.71428,-12.14285 11.44018,0 20.71428,5.43654 20.71428,12.14285 z"
         sodipodi:ry="12.142858"
         sodipodi:rx="20.714285"
         sodipodi:cy="480.93362"
         sodipodi:cx="315"
         id="path4116"
         style="fill:#ffffff;stroke:#000000;stroke-width:1.69000006;stroke-linecap:round;stroke-linejoin:round;stroke-miterlimit:4;stroke-opacity:0.98431373;stroke-dasharray:none;stroke-dashoffset:0"
         sodipodi:type="arc" />
      <path
         transform="matrix(0.99993316,-0.01156233,0.01156233,0.99993316,43.940056,-4.5445135)"
         d="m 360.00001,475.57648 c 0,4.53662 -5.11674,8.21428 -11.42857,8.21428 -6.31182,0 -11.42857,-3.67766 -11.42857,-8.21428 0,-4.53663 5.11675,-8.21429 11.42857,-8.21429 6.31183,0 11.42857,3.67766 11.42857,8.21429 z"
         sodipodi:ry="8.2142859"
         sodipodi:rx="11.428572"
         sodipodi:cy="475.57648"
         sodipodi:cx="348.57144"
         id="path4114"
         style="fill:#ffffff;stroke:#000000;stroke-width:1.69000006;stroke-linecap:round;stroke-linejoin:round;stroke-miterlimit:4;stroke-opacity:0.98431373;stroke-dasharray:none;stroke-dashoffset:0"
         sodipodi:type="arc" />
      <path
         sodipodi:nodetypes="ccsccsc"
         inkscape:connector-curvature="0"
         id="path4120"
         d="m 391.93918,458.89757 -9.59644,-18.68782 c 0,0 -21.31487,0.83588 -9.30059,35.91116 6.29294,18.37202 24.71285,19.48877 24.71285,19.48877 l 2.2654,-19.03445 c 0,0 -6.56599,-0.50507 -9.59645,-7.07107 -3.03046,-6.56599 1.51523,-10.60659 1.51523,-10.60659 z"
         style="fill:#999999;fill-opacity:1;stroke:#000000;stroke-width:1px;stroke-linecap:butt;stroke-linejoin:miter;stroke-opacity:1" />
      <path
         transform="matrix(1.3798528,-0.37529936,0.21907869,0.80548058,-186.84703,219.63723)"
         d="m 360.62446,478.09045 c 0,3.6263 -2.2613,6.566 -5.05076,6.566 -2.78946,0 -5.05076,-2.9397 -5.05076,-6.566 0,-3.62629 2.2613,-6.56599 5.05076,-6.56599 2.78946,0 5.05076,2.9397 5.05076,6.56599 z"
         sodipodi:ry="6.5659914"
         sodipodi:rx="5.0507627"
         sodipodi:cy="478.09045"
         sodipodi:cx="355.5737"
         id="path4112"
         style="fill:#ffffff;stroke:#000000;stroke-width:1.69000006;stroke-linecap:round;stroke-linejoin:round;stroke-miterlimit:4;stroke-opacity:0.98431373;stroke-dasharray:none;stroke-dashoffset:0"
         sodipodi:type="arc" />
    </g>
    <path
       style="fill:none;stroke:#000000;stroke-width:1px;stroke-linecap:butt;stroke-linejoin:miter;stroke-opacity:1"
       d="m 190.3271,354.54111 -0.41842,170.52144"
       id="path4190"
       inkscape:connector-curvature="0"
       sodipodi:nodetypes="cc" />
    <path
       sodipodi:type="arc"
       style="fill:none;stroke:#000000;stroke-width:0.19713388;stroke-linecap:round;stroke-linejoin:round;stroke-miterlimit:4;stroke-opacity:1;stroke-dasharray:none;stroke-dashoffset:0"
       id="path2985-1-3-7"
       sodipodi:cx="238.396"
       sodipodi:cy="411.92548"
       sodipodi:rx="155.56349"
       sodipodi:ry="40.406101"
       d="m 393.95949,411.92548 a 155.56349,40.406101 0 1 1 -311.126986,0 155.56349,40.406101 0 1 1 311.126986,0 z"
       transform="matrix(0.9694412,0.26257001,-1.3193905,1.8289976,1396.7496,-261.89957)" />
    <path
       style="fill:none;stroke:#000000;stroke-width:1px;stroke-linecap:butt;stroke-linejoin:miter;stroke-opacity:1"
       d="m 510.71429,474.50504 0,95"
       id="path6262"
       inkscape:connector-curvature="0" />
    <path
       style="fill:none;stroke:#000000;stroke-width:1px;stroke-linecap:butt;stroke-linejoin:miter;stroke-opacity:1"
       d="M 1278.9975,86.273211 1767.4063,-38.985711"
       id="path6274"
       inkscape:connector-curvature="0"
       sodipodi:nodetypes="cc" />
    <path
       style="fill:none;stroke:#000000;stroke-width:0.96212584;stroke-linecap:round;stroke-linejoin:round;stroke-miterlimit:4;stroke-opacity:0.98431373;stroke-dasharray:none;stroke-dashoffset:0"
       d="m 174.59375,452.28125 c -0.28664,0.0331 -0.56907,0.12352 -0.84375,0.25 l -0.0312,0 -59.15625,8.09375 -0.40625,56.25 61.71875,-9.59375 c 0.44373,0.18141 0.89141,0.27098 1.34375,0.21875 4.58632,-0.52955 7.72614,-13.31589 7,-28.5625 -0.72614,-15.24661 -5.03868,-27.1858 -9.625,-26.65625 z"
       id="path6280"
       inkscape:connector-curvature="0" />
    <path
       style="fill:none;stroke:#000000;stroke-width:1px;stroke-linecap:butt;stroke-linejoin:miter;stroke-opacity:1"
       d="m 124.84727,451.01692 -23.9602,-18.92132 -35.556397,2.14269 18.731765,20.12096 z"
       id="path6380"
       inkscape:connector-curvature="0"
       sodipodi:nodetypes="ccccc" />
    <path
       style="fill:none;stroke:#000000;stroke-width:1px;stroke-linecap:butt;stroke-linejoin:miter;stroke-opacity:1"
       d="m 64.91705,434.76772 0.591688,76.55855 17.677669,32.04078 0.552427,-88.94078 z"
       id="path6382"
       inkscape:connector-curvature="0"
       sodipodi:nodetypes="ccccc" />
    <path
       style="fill:#ffffff;stroke:#000000;stroke-width:1px;stroke-linecap:butt;stroke-linejoin:miter;stroke-opacity:1"
       d="m 83.738833,454.42628 41.432037,-3.31457 0,84.99526 -41.66086,7.73399 z"
       id="path6378"
       inkscape:connector-curvature="0"
       sodipodi:nodetypes="ccccc" />
    <path
       id="path3992"
       d="m 325.9375,282.75 c -56.03889,-0.2182 -105.53913,15.53322 -125.78125,43.59375 -29.44309,40.81531 14.21013,92.19121 97.5,114.75 65.00677,17.60687 134.92858,12.4525 176.5,-10.0625 L 473.59375,521 c 0,0 15.62836,-8.91797 25.90625,-22.125 8.03371,-10.32328 10.3125,-25.125 10.3125,-25.125 l 1.40625,-90.625 C 508.5439,330.49665 440.91479,303.76751 404.28125,293.3125 378.25316,286.26288 351.40972,282.84918 325.9375,282.75 z"
       style="opacity:0.46261686;fill:none;stroke:#000000;stroke-width:1px;stroke-linecap:butt;stroke-linejoin:miter;stroke-opacity:1"
       inkscape:connector-curvature="0"
       sodipodi:nodetypes="sssccscccs" />
    <path
       style="fill:#ffffff;stroke:#000000;stroke-width:1;stroke-linecap:round;stroke-linejoin:round;stroke-miterlimit:4;stroke-opacity:1;stroke-dasharray:none;stroke-dashoffset:0"
       d="m 335.80346,253.15625 0,65.1875 c -1.55681,6.75447 6.1294,14.20479 19.21875,17.75 15.18485,4.11277 31.85088,1.40992 37.21875,-6.03125 1.87994,-2.60606 2.12708,-5.4488 1,-8.21875 l 0,-65.1875 -57.4375,-3.5 z"
       id="path2985-1-3-4"
       inkscape:connector-curvature="0" />
    <g
       id="g3893"
       transform="translate(-139.99417,39.355339)">
      <path
         transform="matrix(0.17674199,0.04787,-0.24054239,0.33345053,559.24026,66.113801)"
         d="m 393.95949,411.92548 c 0,22.31567 -69.64815,40.4061 -155.56349,40.4061 -85.91535,0 -155.563496,-18.09043 -155.563496,-40.4061 0,-22.31568 69.648146,-40.40611 155.563496,-40.40611 85.91534,0 155.56349,18.09043 155.56349,40.40611 z"
         sodipodi:ry="40.406101"
         sodipodi:rx="155.56349"
         sodipodi:cy="411.92548"
         sodipodi:cx="238.396"
         id="path2985-1-3-4-6"
         style="fill:none;stroke:#000000;stroke-width:1.09000003;stroke-linecap:round;stroke-linejoin:round;stroke-miterlimit:4;stroke-opacity:1;stroke-dasharray:none;stroke-dashoffset:0"
         sodipodi:type="arc" />
      <path
         sodipodi:nodetypes="ccccc"
         inkscape:connector-curvature="0"
         id="path3865"
         d="m 442.00876,195.11775 19.68631,39.64071 103.41017,-1.93012 -28.14604,-39.70774 z"
         style="fill:none;stroke:#000000;stroke-width:1px;stroke-linecap:butt;stroke-linejoin:miter;stroke-opacity:1" />
      <path
         sodipodi:nodetypes="ccccc"
         inkscape:connector-curvature="0"
         id="path3865-7"
         d="m 442.19213,151.63814 19.68631,39.64071 103.41017,-1.93012 -28.14604,-39.70774 z"
         style="fill:none;stroke:#000000;stroke-width:1px;stroke-linecap:butt;stroke-linejoin:miter;stroke-opacity:1" />
      <path
         inkscape:connector-curvature="0"
         id="path3887"
         d="m 441.94174,151.62968 -0.27622,43.36553 20.16359,39.49854 0,-43.08932 z"
         style="fill:#ffffff;stroke:#000000;stroke-width:1px;stroke-linecap:butt;stroke-linejoin:miter;stroke-opacity:1" />
      <path
         sodipodi:nodetypes="ccccc"
         inkscape:connector-curvature="0"
         id="path3867"
         d="m 462.38154,234.21754 -0.27621,-42.81311 103.02766,-1.65728 1e-5,42.26068 z"
         style="fill:#ffffff;fill-opacity:1;stroke:#000000;stroke-width:1px;stroke-linecap:butt;stroke-linejoin:miter;stroke-opacity:1" />
    </g>
    <path
       style="opacity:0.37383178;fill:#b3b3b3;stroke:#000000;stroke-width:1.58689106;stroke-linecap:round;stroke-linejoin:round;stroke-miterlimit:4;stroke-opacity:1;stroke-dasharray:none;stroke-dashoffset:0"
       d="m 190.625,351.59375 0,175.40625 c -6.25881,36.41106 35.78667,75.93477 106.0625,94.96875 83.28987,22.55879 174.68191,7.78406 204.125,-33.03125 5.3298,-7.38841 8.26213,-15.12187 9,-22.96875 l 0.34375,-0.125 0.1875,-92 -0.53125,-0.78125 0,0.6875 c 0,0 -2.27879,14.80172 -10.3125,25.125 C 489.22211,512.08203 473.59375,521 473.59375,521 l 0.5625,-89.96875 c -41.57142,22.515 -111.49323,27.66937 -176.5,10.0625 C 230.96427,423.03044 189.6878,386.48729 191,351.6875 l -0.375,-0.0937 z m 9.25,90.96875 c 6.75648,9.89772 12.02082,14.57891 18.8125,19.78125 l 0.0625,32.375 c -7.45207,-5.95633 -14.19083,-13.80642 -18.25,-19.65625 l -0.625,-32.5 z m 228.3125,62.25 -0.28125,32.9375 c -8.75066,2.13704 -29.42186,3.39202 -37.6875,3.03125 L 390.0625,508.4375 c 9.04453,-0.0571 29.17455,-1.61164 38.125,-3.625 z"
       id="path2985-1-3-8"
       inkscape:connector-curvature="0" />
    <path
       style="fill:#ffffff;stroke:#000000;stroke-width:1.13926804px;stroke-linecap:butt;stroke-linejoin:miter;stroke-opacity:1"
       d="m 405.93713,523.80433 c -3.01904,8.1281 -0.48764,15.17636 5.86999,17.6371 6.35778,2.46074 16.12771,-2.49267 13.54959,-14.70239 -2.57811,-12.20972 -16.40054,-11.06281 -19.41958,-2.93471 z"
       id="path3956"
       inkscape:connector-curvature="0"
       sodipodi:nodetypes="zzzz" />
    <path
       sodipodi:type="arc"
       style="fill:#ffffff;stroke:#000000;stroke-width:5.34417772;stroke-linecap:round;stroke-linejoin:round;stroke-miterlimit:4;stroke-opacity:0.98431373;stroke-dasharray:none;stroke-dashoffset:0"
       id="path6278-6-0"
       sodipodi:cx="237.14285"
       sodipodi:cy="285.21933"
       sodipodi:rx="26.057556"
       sodipodi:ry="38.57143"
       d="m 263.20041,285.21933 a 26.057556,38.57143 0 1 1 -52.11511,0 26.057556,38.57143 0 1 1 52.11511,0 z"
       transform="matrix(0.24119448,0.00342874,5.2475171e-4,-0.18841064,360.14735,586.04236)" />
    <path
       style="fill:#000000;fill-opacity:1;stroke:#000000;stroke-width:1px;stroke-linecap:butt;stroke-linejoin:miter;stroke-opacity:1"
       d="m 275.28234,495.57424 c 0,0 11.00508,4.00866 14.57418,5.29946 3.53957,1.28012 13.95002,4.07781 13.95002,4.07781 l -0.1328,26.88413 c 0,0 -6.08793,-1.26135 -13.58488,-3.42575 -4.99399,-1.44179 -14.71971,-6.21518 -14.71971,-6.21518 z"
       id="path4188"
       inkscape:connector-curvature="0"
       sodipodi:nodetypes="csccscc" />
    <path
       style="fill:none;stroke:#000000;stroke-width:2.0999999;stroke-linecap:butt;stroke-linejoin:miter;stroke-miterlimit:4;stroke-opacity:1;stroke-dasharray:none;marker-end:url(#Arrow1Mend)"
       d="m 265.90321,505.93289 c -7.87758,-3.44394 -17.04525,-9.94883 -25.34663,-15.25562"
       id="path4237"
       inkscape:connector-curvature="0"
       sodipodi:nodetypes="cc" />
    <path
       style="fill:none;stroke:#000000;stroke-width:2.0999999;stroke-linecap:butt;stroke-linejoin:miter;stroke-miterlimit:4;stroke-opacity:1;stroke-dasharray:none;marker-end:url(#Arrow1Mend)"
       d="m 315.04923,519.06681 c 9.37238,2.82124 24.80566,3.29043 32.99457,2.6628"
       id="path4237-9"
       inkscape:connector-curvature="0"
       sodipodi:nodetypes="cc" />
    <path
       style="fill:none;stroke:#000000;stroke-width:2.0999999;stroke-linecap:butt;stroke-linejoin:miter;stroke-miterlimit:4;stroke-opacity:1;stroke-dasharray:none;marker-start:url(#Arrow1Mstart)"
       d="m 289.35715,461.68669 c 0,11.86929 0,31.06835 0,31.06835"
       id="path5470"
       inkscape:connector-curvature="0"
       sodipodi:nodetypes="cc" />
    <path
       style="fill:none;stroke:#000000;stroke-width:2.0999999;stroke-linecap:butt;stroke-linejoin:miter;stroke-miterlimit:4;stroke-opacity:1;stroke-dasharray:none;marker-start:url(#Arrow1Mstart)"
       d="m 290.14286,565.75171 c 0,-11.86929 0,-31.06835 0,-31.06835"
       id="path5470-9"
       inkscape:connector-curvature="0"
       sodipodi:nodetypes="cc" />
    <g
       id="g4055"
       transform="matrix(0.99750806,0.07055263,-0.07055263,0.99750806,28.770965,-33.936119)">
      <path
         sodipodi:nodetypes="cc"
         inkscape:connector-curvature="0"
         id="path4051"
         d="m 527.84417,362.10442 c -4.41943,6.62913 2.48592,11.8772 7.18155,9.9437"
         style="fill:none;stroke:#000000;stroke-width:1px;stroke-linecap:butt;stroke-linejoin:miter;stroke-opacity:1" />
      <path
         sodipodi:nodetypes="csc"
         inkscape:connector-curvature="0"
         id="path4053"
         d="m 457.4097,409.61317 c -5.80049,2.76213 -5.24806,11.32476 1.93349,8.83883 11.26922,-3.90089 -1.93349,-8.83883 -1.93349,-8.83883 z"
         style="fill:#ffffff;stroke:#000000;stroke-width:1px;stroke-linecap:butt;stroke-linejoin:miter;stroke-opacity:1" />
      <path
         sodipodi:nodetypes="ccsccc"
         inkscape:connector-curvature="0"
         id="path4049"
         d="m 528.51563,361.73719 -71.875,46.09374 c 0,0 -1.75635,3.86952 0.58593,7.61718 1.95313,3.125 5.27344,2.9297 5.27344,2.9297 l 72.65625,-46.09375 c 0,0 4.68751,-8.98438 -6.64062,-10.54687 z"
         style="fill:#ffffff;stroke:#000000;stroke-width:1px;stroke-linecap:butt;stroke-linejoin:miter;stroke-opacity:1" />
    </g>
    <text
       xml:space="preserve"
       style="font-size:22px;font-style:normal;font-variant:normal;font-weight:normal;font-stretch:normal;text-align:start;line-height:125%;letter-spacing:0px;word-spacing:0px;writing-mode:lr;text-anchor:start;fill:#000000;fill-opacity:1;stroke:none;font-family:Arial;-inkscape-font-specification:Arial"
       x="375.25775"
       y="570.29462"
       id="text4079"
       sodipodi:linespacing="125%"><tspan
         sodipodi:role="line"
         id="tspan4081"
         x="375.25775"
         y="570.29462">IR backlight</tspan></text>
    <text
       xml:space="preserve"
       style="font-size:22px;font-style:normal;font-variant:normal;font-weight:normal;font-stretch:normal;text-align:start;line-height:125%;letter-spacing:0px;word-spacing:0px;writing-mode:lr;text-anchor:start;fill:#000000;fill-opacity:1;stroke:none;font-family:Arial;-inkscape-font-specification:Arial"
       x="575.15479"
       y="438.41974"
       id="text4079-0"
       sodipodi:linespacing="125%"
       inkscape:transform-center-x="165.625"
       inkscape:transform-center-y="92.1875"><tspan
         sodipodi:role="line"
         id="tspan4081-5"
         x="575.15479"
         y="438.41974">Ground electrode</tspan></text>
    <text
       xml:space="preserve"
       style="font-size:22px;font-style:normal;font-variant:normal;font-weight:normal;font-stretch:normal;text-align:start;line-height:125%;letter-spacing:0px;word-spacing:0px;writing-mode:lr-tb;text-anchor:start;fill:#000000;fill-opacity:1;stroke:none;font-family:Arial;-inkscape-font-specification:Arial"
       x="665.60205"
       y="537.72009"
       id="text4079-0-0"
       sodipodi:linespacing="125%"
       inkscape:transform-center-x="165.625"
       inkscape:transform-center-y="92.1875"><tspan
         sodipodi:role="line"
         id="tspan4081-5-1"
         x="665.60205"
         y="537.72009">Tether</tspan></text>
    <text
       xml:space="preserve"
       style="font-size:22px;font-style:normal;font-variant:normal;font-weight:normal;font-stretch:normal;text-align:start;line-height:125%;letter-spacing:0px;word-spacing:0px;writing-mode:lr;text-anchor:start;fill:#000000;fill-opacity:1;stroke:none;font-family:Arial;-inkscape-font-specification:Arial"
       x="649.51361"
       y="486.9187"
       id="text4079-0-0-7"
       sodipodi:linespacing="125%"
       inkscape:transform-center-x="165.625"
       inkscape:transform-center-y="92.1875"><tspan
         sodipodi:role="line"
         id="tspan4081-5-1-8"
         x="649.51361"
         y="486.9187">Muscle electrode</tspan></text>
    <text
       xml:space="preserve"
       style="font-size:22px;font-style:normal;font-variant:normal;font-weight:normal;font-stretch:normal;text-align:start;line-height:125%;letter-spacing:0px;word-spacing:0px;writing-mode:lr;text-anchor:start;fill:#000000;fill-opacity:1;stroke:none;font-family:Arial;-inkscape-font-specification:Arial"
       x="37.045898"
       y="568.37634"
       id="text4079-0-4"
       sodipodi:linespacing="125%"
       inkscape:transform-center-x="165.625"
       inkscape:transform-center-y="92.1875"><tspan
         sodipodi:role="line"
         id="tspan4081-5-3"
         x="37.045898"
         y="568.37634">High speed</tspan><tspan
         sodipodi:role="line"
         x="37.045898"
         y="595.87634"
         id="tspan4167">camera</tspan></text>
    <text
       xml:space="preserve"
       style="font-size:22px;font-style:normal;font-variant:normal;font-weight:normal;font-stretch:normal;text-align:start;line-height:125%;letter-spacing:0px;word-spacing:0px;writing-mode:lr;text-anchor:start;fill:#000000;fill-opacity:1;stroke:none;font-family:Arial;-inkscape-font-specification:Arial"
       x="29.634285"
       y="349.59384"
       id="text4079-0-0-7-3"
       sodipodi:linespacing="125%"
       inkscape:transform-center-x="165.625"
       inkscape:transform-center-y="92.1875"><tspan
         sodipodi:role="line"
         id="tspan4081-5-1-8-8"
         x="29.634285"
         y="349.59384">Wingbeat </tspan><tspan
         sodipodi:role="line"
         x="29.634285"
         y="377.09384"
         id="tspan4199">anylizer</tspan></text>
    <path
       sodipodi:nodetypes="ccccc"
       inkscape:connector-curvature="0"
       id="path4193"
       d="m 669.24412,516.36521 -291.68583,-46.69497 -1.06083,-2.94496 293.2043,41.27779 z"
       style="fill:#800000;stroke:none" />
    <path
       sodipodi:nodetypes="cccc"
       inkscape:connector-curvature="0"
       id="path4195"
       d="M 638.77537,474.95896 371.02871,460.47528 638.45176,481.47704 z"
       style="fill:#800000;stroke:#800000;stroke-opacity:1" />
    <path
       style="fill:none;stroke:#000000;stroke-width:1.7;stroke-linecap:butt;stroke-linejoin:miter;stroke-opacity:1;stroke-miterlimit:4;stroke-dasharray:none"
       d="m 129.26796,365.14278 116.0097,76.23495"
       id="path4197"
       inkscape:connector-curvature="0" />
    <text
       xml:space="preserve"
       style="font-size:22px;font-style:normal;font-variant:normal;font-weight:normal;font-stretch:normal;text-align:start;line-height:125%;letter-spacing:0px;word-spacing:0px;writing-mode:lr;text-anchor:start;fill:#000000;fill-opacity:1;stroke:none;font-family:Arial;-inkscape-font-specification:Arial"
       x="513.6084"
       y="354.31384"
       id="text4079-0-41"
       sodipodi:linespacing="125%"
       inkscape:transform-center-x="165.625"
       inkscape:transform-center-y="92.1875"><tspan
         sodipodi:role="line"
         id="tspan4081-5-5"
         x="513.6084"
         y="354.31384">IR LED</tspan></text>
  </g>
</svg>
